<?xml version="1.0" encoding="utf-8"?>
<svg version="1.1" width="800" height="800" viewBox="-22.73 -22.73 800 800" xmlns="http://www.w3.org/2000/svg">
  <desc>Created with Fabric.js 5.2.4</desc>
  <defs/>
  <circle cx="376.504" cy="377.482" r="400" fill="white"/>
  <g transform="matrix(2.74, 0, 0, 2.74, 355.850372, 378.309265)">
    <path style="stroke: rgb(239,110,61); stroke-width: 2; stroke-dasharray: none; stroke-linecap: butt; stroke-dashoffset: 0; stroke-linejoin: miter; stroke-miterlimit: 4; fill: rgb(239,110,61); fill-rule: nonzero; opacity: 1;" vector-effect="non-scaling-stroke" transform=" translate(54.01, -85.75)" d="M 0 0 C 10.77777599 9.27345744 16.8503504 21.7421595 18.2109375 35.90234375 C 20.5404155 72.73028164 7.94441187 110.47965777 -16.11328125 138.62109375 C -19.22666135 142.12043006 -22.38984421 145.55219485 -25.7265625 148.83984375 C -27.94432111 150.92277251 -27.94432111 150.92277251 -29.7890625 153.90234375 C -29.11488281 154.01449219 -28.44070312 154.12664062 -27.74609375 154.2421875 C -24.89082492 154.87962532 -22.2244305 155.78601398 -19.47290039 156.76928711 C -7.54928492 160.92366897 3.9427607 161.40753712 16.2109375 157.90234375 C 15.87305406 165.84260461 11.73489229 170.93669687 6.7109375 176.83984375 C 0.03651732 182.3462404 -8.63093399 181.42180705 -16.7890625 180.90234375 C -25.74216748 179.61421896 -34.6486397 174.31304167 -41.45727539 168.47094727 C -43.19681307 167.02482558 -44.74054967 165.86711843 -46.7890625 164.90234375 C -49.87366315 165.20741414 -51.98749201 165.63680759 -54.8515625 166.58984375 C -66.63345807 169.91113056 -79.51838412 171.01186169 -90.66015625 164.87109375 C -95.39782105 161.37396462 -98.20408115 156.37044745 -99.171875 150.6328125 C -99.46280154 144.94034982 -98.16647565 141.46641557 -94.7890625 136.90234375 C -88.27133331 131.88870591 -80.51464779 132.36006347 -72.69140625 133.2578125 C -64.30642819 134.69221173 -57.7684506 137.64765321 -50.47460938 141.94116211 C -49.45077148 142.53296265 -49.45077148 142.53296265 -48.40625 143.13671875 C -47.80409668 143.49991211 -47.20194336 143.86310547 -46.58154297 144.23730469 C -44.25506034 145.10046713 -43.08386156 144.76882263 -40.7890625 143.90234375 C -17.38728213 124.16967617 -6.73893515 82.81497077 -3.7890625 53.90234375 C -2.74241569 39.7371128 -2.18113155 24.39993184 -10.7265625 12.27734375 C -11.71942572 11.12758363 -12.73731239 9.99849492 -13.7890625 8.90234375 C -14.4903125 8.13921875 -15.1915625 7.37609375 -15.9140625 6.58984375 C -23.81322098 1.95338116 -32.92886846 0.87963839 -41.7890625 2.90234375 C -63.05756825 9.76403391 -76.38266512 26.29651123 -86.58984375 45.4453125 C -93.87938032 59.79547936 -98.49664303 75.1973268 -101.7890625 90.90234375 C -102.03527344 92.0521875 -102.28148438 93.20203125 -102.53515625 94.38671875 C -105.21075563 109.51769455 -104.42429723 125.6922145 -102.7890625 140.90234375 C -108.38494564 141.19178598 -111.97575505 141.11121538 -116.7890625 137.90234375 C -121.35015234 133.44732576 -123.21193672 129.02969053 -124.7890625 122.90234375 C -124.9746875 122.19464844 -125.1603125 121.48695313 -125.3515625 120.7578125 C -130.10322854 89.74470646 -119.69901669 56.27517267 -102.03515625 30.8984375 C -88.2301974 12.48382283 -70.79440946 -4.83419498 -47.09912109 -8.81640625 C -30.44327891 -10.84425768 -13.76693361 -10.53682783 0 0 Z M -89.7890625 145.90234375 C -91.13013611 148.18991942 -91.13013611 148.18991942 -90.7890625 150.90234375 C -88.52649402 155.25343698 -86.32689026 157.98637203 -81.7890625 159.90234375 C -73.12259993 161.92958646 -65.47708132 160.23917488 -57.7890625 155.90234375 C -64.07438566 148.7789775 -71.83982981 144.26976557 -81.296875 142.95703125 C -84.9164241 142.87760541 -86.99215905 143.62065935 -89.7890625 145.90234375 Z" stroke-linecap="round"/>
  </g>
</svg>